<?xml version="1.0" standalone="no"?>
<!DOCTYPE svg PUBLIC "-//W3C//DTD SVG 20010904//EN"
 "http://www.w3.org/TR/2001/REC-SVG-20010904/DTD/svg10.dtd">
<svg version="1.0" xmlns="http://www.w3.org/2000/svg"
 width="700.000000pt" height="700.000000pt" viewBox="0 0 700.000000 700.000000"
 preserveAspectRatio="xMidYMid meet">
<metadata>
Created by potrace 1.11, written by Peter Selinger 2001-2013
</metadata>
<g transform="translate(0.000000,700.000000) scale(0.100000,-0.100000)"
fill="#000000" stroke="none">
<path d="M3580 5668 l0 -1228 -1790 0 -1790 0 0 -75 0 -75 970 0 970 0 0
-2145 0 -2145 75 0 75 0 0 2145 0 2145 745 0 745 0 0 -1246 0 -1246 608 5
c641 5 677 7 912 58 604 129 1085 457 1398 951 144 227 258 499 322 773 94
398 112 844 51 1261 -69 468 -228 871 -475 1199 -77 102 -289 315 -386 387
-316 233 -708 388 -1110 439 -47 5 -263 12 -480 15 -217 2 -495 5 -617 7
l-223 3 0 -1228z m1190 1062 c535 -48 998 -253 1332 -591 433 -437 651 -1035
651 -1784 0 -228 -10 -346 -44 -550 -94 -560 -327 -1011 -686 -1331 -244 -217
-548 -373 -888 -454 -228 -55 -307 -61 -852 -67 -276 -3 -513 -3 -527 1 l-26
6 0 1160 0 1160 693 0 c382 0 735 3 786 7 l92 6 -3 71 -3 71 -780 5 c-429 3
-781 6 -782 8 -2 1 -3 517 -3 1147 l0 1145 463 0 c254 0 514 -5 577 -10z"/>
</g>
</svg>
